# xmcd
#
# Track frame offsets: 
#        150
#        12455
#        26015
#        38399
#        51008
#        63581
#        75859
#        88516
#        101048
#        113600
#        125937
#        138395
#        150963
#        164004
#        174756
#        189098
#        200765
#        213336
#        224231
#        234897
#        247993
#        259559
#        268446
#        274917
#        285728
#        289586
#        302344
#
# Disc length: 4213 seconds
#
# Revision: 0
# Processed by: cddbd v1.5.2PL0 Copyright (c) Steve Scherf et al.
# Submitted via: ExactAudioCopy v0.95b4
#
DISCID=7b10731b
DTITLE=Smokey Hogg - Deep Ellum Rambler
DYEAR=2000
DGENRE=Blues
TTITLE0=Too Many Drivers (aka Little Car Blues)
TTITLE1=Country Gal
TTITLE2=Skinny Leg'd Woman
TTITLE3=Unemployment Blues
TTITLE4=Wood and Jackson Blues
TTITLE5=Bad Life Blues
TTITLE6=Suitcase Blues (aka Low Down Blues)
TTITLE7=Hard Time Blues
TTITLE8=When The Drop Falls
TTITLE9=Who's Heah
TTITLE10=Going Home Blues
TTITLE11=Clean Woman Blues
TTITLE12=Black Horse Blues (aka Black Mare)
TTITLE13=Jivin' Little Woman
TTITLE14=Look In Your Eyes Pretty Mama
TTITLE15=Little School Girl
TTITLE16=Golden Diamond Blues
TTITLE17=My Christmas Baby
TTITLE18=Oh Woman, Oh Woman
TTITLE19=(I Wonder) Where Did My Boogie Go
TTITLE20=Long Tall Mama
TTITLE21=My Train Is Coming
TTITLE22=You Gonna Look Like A Monkey
TTITLE23=Believe I'll Go Down On That M and KT Line
TTITLE24=false start to Brown Skin Woman with chat
TTITLE25=Brown Skin Woman
TTITLE26=You've Been Gone So Long
EXTD=
EXTT0=
EXTT1=
EXTT2=
EXTT3=
EXTT4=
EXTT5=
EXTT6=
EXTT7=
EXTT8=
EXTT9=
EXTT10=
EXTT11=
EXTT12=
EXTT13=
EXTT14=
EXTT15=
EXTT16=
EXTT17=
EXTT18=
EXTT19=
EXTT20=
EXTT21=
EXTT22=
EXTT23=
EXTT24=
EXTT25=
EXTT26=
PLAYORDER=
